<?xml version="1.0" encoding="UTF-8" standalone="no"?>
<!-- Created with Inkscape (http://www.inkscape.org/) -->

<svg
   width="13.229167mm"
   height="13.229166mm"
   viewBox="0 0 13.229167 13.229166"
   version="1.1"
   id="svg5"
   xml:space="preserve"
   inkscape:version="1.2.1 (9c6d41e410, 2022-07-14)"
   sodipodi:docname="dibujo-1.svg"
   xmlns:inkscape="http://www.inkscape.org/namespaces/inkscape"
   xmlns:sodipodi="http://sodipodi.sourceforge.net/DTD/sodipodi-0.dtd"
   xmlns="http://www.w3.org/2000/svg"
   xmlns:svg="http://www.w3.org/2000/svg"><sodipodi:namedview
     id="namedview7"
     pagecolor="#ffffff"
     bordercolor="#000000"
     borderopacity="0.25"
     inkscape:showpageshadow="2"
     inkscape:pageopacity="0.0"
     inkscape:pagecheckerboard="0"
     inkscape:deskcolor="#d1d1d1"
     inkscape:document-units="mm"
     showgrid="false"
     inkscape:zoom="3.8859452"
     inkscape:cx="-18.785648"
     inkscape:cy="15.697596"
     inkscape:window-width="1920"
     inkscape:window-height="1027"
     inkscape:window-x="1912"
     inkscape:window-y="-8"
     inkscape:window-maximized="1"
     inkscape:current-layer="layer1" /><defs
     id="defs2" /><g
     inkscape:label="Capa 1"
     inkscape:groupmode="layer"
     id="layer1"
     transform="translate(-91.770836,-62.813992)"><g
       id="g302"
       transform="matrix(1.9896964,0,0,1.8497653,-97.370712,-58.496013)"
       style="stroke-width:0.521252;fill:#1d9fe3;fill-opacity:1"><path
         style="fill:#1d9fe3;fill-opacity:1;stroke-width:0.521252"
         d="m 99.848991,71.247585 c 0.03546,-0.04244 0.06876,-0.07717 0.07398,-0.07717 0.0052,0 -0.01951,0.03473 -0.05497,0.07717 -0.03546,0.04244 -0.06876,0.07717 -0.07398,0.07717 -0.0052,0 0.01951,-0.03473 0.05498,-0.07717 z m -3.051137,-0.126779 -0.151614,-0.181901 0.156811,0.175871 c 0.145642,0.163345 0.165477,0.187931 0.151614,0.187931 -0.0029,0 -0.07342,-0.08186 -0.156811,-0.181901 z m 3.231706,-0.08268 c 0.0189,-0.02425 0.0387,-0.0441 0.0439,-0.0441 0.005,0 -0.006,0.01984 -0.0249,0.0441 -0.0189,0.02425 -0.0387,0.0441 -0.0439,0.0441 -0.0052,0 0.006,-0.01984 0.0249,-0.0441 z m -0.237591,-0.518143 c 0.02455,-0.03032 0.04892,-0.05512 0.05415,-0.05512 0.0052,0 -0.01059,0.0248 -0.03514,0.05512 -0.02455,0.03032 -0.04892,0.05512 -0.05414,0.05512 -0.0052,0 0.01058,-0.02481 0.03514,-0.05512 z m -2.834531,-0.0055 c -0.02364,-0.03497 -0.02297,-0.03575 0.0072,-0.0083 0.03166,0.0288 0.04173,0.04691 0.02609,0.04691 -0.0039,0 -0.01892,-0.01736 -0.03326,-0.03858 z"
         id="path316" /><path
         style="fill:#1d9fe3;fill-opacity:1;stroke-width:0.521252"
         d="m 97.356594,71.749191 c -0.02364,-0.03497 -0.02297,-0.03575 0.0072,-0.0083 0.03166,0.0288 0.04173,0.04691 0.02609,0.04691 -0.0039,0 -0.01892,-0.01736 -0.03326,-0.03858 z m 2.017212,0.03026 c 0,-0.0046 0.01497,-0.02194 0.03326,-0.03859 0.03015,-0.02743 0.03082,-0.02665 0.0072,0.0083 -0.02483,0.03673 -0.04044,0.04841 -0.04044,0.03026 z m -0.456179,-0.264584 c 0,-0.0046 0.01497,-0.02194 0.03326,-0.03859 0.03015,-0.02742 0.03082,-0.02665 0.0072,0.0083 -0.02483,0.03673 -0.04044,0.04841 -0.04044,0.03026 z m -1.474881,-0.438159 -0.03621,-0.04961 0.04277,0.042 c 0.04019,0.03947 0.05142,0.05722 0.03621,0.05722 -0.0036,0 -0.02285,-0.02232 -0.04277,-0.04961 z m 1.864534,0.0055 c 0.01892,-0.02425 0.03868,-0.0441 0.04391,-0.0441 0.0052,0 -0.006,0.01984 -0.0249,0.0441 -0.01892,0.02425 -0.03868,0.0441 -0.04391,0.0441 -0.0052,0 0.006,-0.01984 0.0249,-0.0441 z m -2.415749,-0.644922 -0.03621,-0.04961 0.04277,0.042 c 0.04019,0.03947 0.05142,0.05722 0.03621,0.05722 -0.0036,0 -0.02285,-0.02232 -0.04277,-0.04961 z m 2.95746,0.01924 c 0,-0.0046 0.01497,-0.02194 0.03326,-0.03858 0.03015,-0.02743 0.03082,-0.02665 0.0072,0.0083 -0.02483,0.03673 -0.04044,0.04841 -0.04044,0.03026 z"
         id="path314" /><path
         style="fill:#1d9fe3;fill-opacity:1;stroke-width:0.521252"
         d="m 97.508653,71.153879 c -0.02364,-0.03497 -0.02297,-0.03575 0.0072,-0.0083 0.03166,0.0288 0.04173,0.04691 0.02609,0.04691 -0.0039,0 -0.01892,-0.01736 -0.03326,-0.03858 z m 1.713093,0.03026 c 0,-0.0046 0.01497,-0.02194 0.03326,-0.03858 0.03015,-0.02743 0.03082,-0.02665 0.0072,0.0083 -0.02483,0.03673 -0.04044,0.04841 -0.04044,0.03026 z m -3.649425,-4.915414 c 0,-0.0038 0.0278,-0.03604 0.06177,-0.07166 l 0.06177,-0.06476 -0.05583,0.07166 c -0.05204,0.06679 -0.06772,0.08179 -0.06772,0.06476 z"
         id="path312" /><path
         style="fill:#1d9fe3;fill-opacity:1;stroke-width:0.521252"
         d="m 97.280564,71.660997 c -0.02364,-0.03497 -0.02297,-0.03575 0.0072,-0.0083 0.03166,0.0288 0.04173,0.04691 0.02609,0.04691 -0.0039,0 -0.01892,-0.01736 -0.03326,-0.03859 z m 2.169271,0.03026 c 0,-0.0046 0.01497,-0.02194 0.03326,-0.03858 0.03015,-0.02743 0.03082,-0.02665 0.0072,0.0083 -0.02483,0.03673 -0.04044,0.04841 -0.04044,0.03026 z m -0.285111,-0.440972 c 0,-0.0046 0.01497,-0.02194 0.03326,-0.03859 0.03015,-0.02743 0.03082,-0.02665 0.0072,0.0083 -0.02483,0.03673 -0.04044,0.04841 -0.04044,0.03026 z M 96.805379,70.33808 c -0.02364,-0.03497 -0.02297,-0.03575 0.0072,-0.0083 0.03166,0.0288 0.04173,0.04691 0.02609,0.04691 -0.0039,0 -0.01892,-0.01736 -0.03326,-0.03858 z"
         id="path310" /><path
         style="fill:#1d9fe3;fill-opacity:1;stroke-width:0.521252"
         d="m 98.359426,72.079133 c -0.0051,-0.0095 0.0066,-0.01732 0.02599,-0.01732 0.01937,0 0.03107,0.0078 0.02599,0.01732 -0.0051,0.0095 -0.01677,0.01732 -0.02599,0.01732 -0.0092,0 -0.02092,-0.0078 -0.02599,-0.01732 z m -0.812758,-0.131504 c -0.02364,-0.03497 -0.02297,-0.03575 0.0072,-0.0083 0.01829,0.01664 0.03326,0.03401 0.03326,0.03858 0,0.01815 -0.01561,0.0065 -0.04044,-0.03026 z m 1.637063,0.03026 c 0,-0.0046 0.01497,-0.02194 0.03326,-0.03858 0.03015,-0.02743 0.03082,-0.02665 0.0072,0.0083 -0.02483,0.03673 -0.04044,0.04841 -0.04044,0.03026 z m -1.960189,-0.383038 c -0.02364,-0.03497 -0.02297,-0.03575 0.0072,-0.0083 0.03166,0.0288 0.04173,0.04691 0.02609,0.04691 -0.0039,0 -0.01892,-0.01736 -0.03326,-0.03858 z"
         id="path308" /><path
         style="fill:#1d9fe3;fill-opacity:1;stroke-width:0.521252"
         d="m 96.50126,70.757004 c -0.02364,-0.03497 -0.02297,-0.03575 0.0072,-0.0083 0.03166,0.0288 0.04173,0.04691 0.02609,0.04691 -0.0039,0 -0.01891,-0.01736 -0.03326,-0.03859 z m -1.440639,-2.840596 c 9.12e-4,-0.02569 0.0054,-0.03091 0.01148,-0.01332 0.0055,0.01592 0.0048,0.03493 -0.0015,0.04226 -0.0063,0.0073 -0.01081,-0.0057 -0.01,-0.02894 z m 6.633589,0 c 9.1e-4,-0.02569 0.005,-0.03091 0.0115,-0.01332 0.005,0.01592 0.005,0.03493 -10e-4,0.04226 -0.006,0.0073 -0.0108,-0.0057 -0.01,-0.02894 z m 0,-0.242535 c 9.1e-4,-0.02568 0.005,-0.03091 0.0115,-0.01332 0.005,0.01592 0.005,0.03493 -10e-4,0.04226 -0.006,0.0073 -0.0108,-0.0057 -0.01,-0.02894 z m -5.760748,-1.056496 c 0.02455,-0.03032 0.04892,-0.05512 0.05414,-0.05512 0.0052,0 -0.01058,0.0248 -0.03514,0.05512 -0.02455,0.03032 -0.04892,0.05512 -0.05414,0.05512 -0.0052,0 0.01058,-0.02481 0.03514,-0.05512 z m 4.883468,-0.0055 -0.0461,-0.06063 0.0523,0.05345 c 0.0489,0.04996 0.061,0.06781 0.0461,0.06781 -0.003,0 -0.0269,-0.02729 -0.0523,-0.06063 z"
         id="path306" /><path
         style="fill:#1d9fe3;fill-opacity:1;stroke-width:0.521252"
         d="m 98.299886,72.704976 c -0.117881,-0.06029 -1.322464,-1.371568 -1.781852,-1.939675 -1.100091,-1.360441 -1.524994,-2.304677 -1.439116,-3.198059 0.132855,-1.382091 1.25053,-2.258948 2.432957,-1.908743 0.263731,0.07811 0.497454,0.210754 0.744587,0.422572 0.08454,0.07246 0.136196,0.103304 0.15297,0.09134 0.01393,-0.0099 0.07196,-0.05945 0.128957,-0.110032 0.583629,-0.517978 1.410777,-0.627992 2.061611,-0.274203 0.85962,0.467284 1.2871,1.562569 1.02391,2.62343 -0.14348,0.578331 -0.54762,1.305594 -1.16518,2.096801 -0.514434,0.659083 -1.84219,2.123803 -1.991918,2.197394 -0.07444,0.03659 -0.09396,0.03649 -0.166926,-8.29e-4 z m 0.405445,-0.94476 c 0.46567,-0.494269 1.170318,-1.304582 1.452389,-1.670183 0.57877,-0.750148 0.92922,-1.39599 1.04453,-1.924962 0.0555,-0.254821 0.0423,-0.634766 -0.0308,-0.886235 -0.15257,-0.524411 -0.4832,-0.90941 -0.92692,-1.079345 -0.2126,-0.08142 -0.54282,-0.10119 -0.775758,-0.04644 -0.304053,0.07147 -0.564346,0.230377 -0.796369,0.486188 -0.164189,0.181022 -0.203372,0.209648 -0.286964,0.209648 -0.08354,0 -0.121611,-0.02803 -0.296531,-0.218333 -0.317378,-0.345292 -0.673552,-0.509475 -1.104465,-0.509117 -0.597368,4.96e-4 -1.113758,0.393198 -1.340606,1.0195 -0.115021,0.31756 -0.142727,0.718821 -0.07183,1.040364 0.153883,0.697943 0.675658,1.52582 1.704341,2.704199 0.356132,0.407958 1.086621,1.207229 1.105905,1.210037 0.0035,5.05e-4 0.148868,-0.15039 0.323101,-0.335322 z"
         id="path304" /></g></g></svg>
