<?xml version="1.0" encoding="UTF-8" standalone="no"?>
<!-- Created with Inkscape (http://www.inkscape.org/) -->

<svg
   width="512"
   height="512"
   viewBox="0 0 135.46667 135.46667"
   version="1.1"
   id="svg5"
   xml:space="preserve"
   inkscape:version="1.2.1 (9c6d41e410, 2022-07-14)"
   sodipodi:docname="favicon.svg"
   xmlns:inkscape="http://www.inkscape.org/namespaces/inkscape"
   xmlns:sodipodi="http://sodipodi.sourceforge.net/DTD/sodipodi-0.dtd"
   xmlns="http://www.w3.org/2000/svg"
   xmlns:svg="http://www.w3.org/2000/svg"><sodipodi:namedview
     id="namedview7"
     pagecolor="#ffffff"
     bordercolor="#000000"
     borderopacity="0.25"
     inkscape:showpageshadow="2"
     inkscape:pageopacity="0.0"
     inkscape:pagecheckerboard="0"
     inkscape:deskcolor="#d1d1d1"
     inkscape:document-units="px"
     showgrid="false"
     showguides="true"
     inkscape:lockguides="false"
     inkscape:zoom="0.74224042"
     inkscape:cx="800.27978"
     inkscape:cy="553.72894"
     inkscape:window-width="1920"
     inkscape:window-height="1027"
     inkscape:window-x="1912"
     inkscape:window-y="-8"
     inkscape:window-maximized="1"
     inkscape:current-layer="layer1" /><defs
     id="defs2" /><g
     inkscape:label="Capa 1"
     inkscape:groupmode="layer"
     id="layer1"><g
       transform="matrix(0.05872398,0,0,-0.05868698,-1.5706063,136.95196)"
       fill="#000000"
       stroke="none"
       id="g1781"
       style="fill:#1d9fe3;fill-opacity:1"><path
         d="M 1070,2329 C 591,2289 181,1939 60,1464 15,1290 16,1071 61,890 160,493 493,160 890,61 c 403,-100 816,13 1106,303 245,244 363,571 333,919 -23,273 -130,505 -324,703 -251,256 -570,373 -935,343 z m 323,-60 c 236,-47 420,-151 592,-330 201,-210 305,-470 305,-759 C 2290,758 2046,367 1669,182 1514,107 1354,70 1180,70 821,70 500,234 281,529 58,830 8,1242 151,1598 c 87,217 266,422 475,544 225,131 513,179 767,127 z"
         id="path1775"
         style="fill:#1d9fe3;fill-opacity:1" /><path
         d="m 920,1875 c -102,-57 -188,-104 -192,-105 -5,0 -8,32 -8,70 v 70 h -60 -59 l -3,-107 -3,-108 -160,-87 c -88,-48 -160,-92 -159,-98 1,-5 2,-19 3,-30 1,-19 8,-20 126,-20 H 530 V 1020 580 h 490 490 v 30 30 h -105 -105 l -2,217 -3,217 -42,29 c -57,41 -123,47 -189,18 -88,-39 -84,-26 -84,-268 V 640 H 780 580 v 440 439 l -90,3 -91,3 282,155 c 156,85 317,174 359,197 l 77,42 407,-220 c 224,-121 413,-222 420,-225 7,-3 17,6 23,19 11,23 3,28 -417,255 -236,128 -432,232 -437,231 -4,0 -91,-47 -193,-104 z m 295,-814 30,-17 3,-202 2,-202 h -110 -110 v 199 c 0,219 -2,212 67,237 42,15 73,11 118,-15 z"
         id="path1777"
         style="fill:#1d9fe3;fill-opacity:1" /><path
         d="m 1470,1390 c -8,-5 -31,-10 -51,-10 -58,0 -62,-12 -57,-167 4,-126 6,-144 33,-201 32,-72 85,-123 145,-141 l 40,-12 V 717 c 0,-154 10,-193 62,-249 58,-60 168,-86 245,-57 40,15 91,67 119,121 21,41 24,61 24,153 0,64 4,105 10,105 19,0 50,64 50,103 0,104 -93,155 -160,88 -50,-49 -52,-128 -5,-173 22,-21 25,-31 25,-103 0,-101 -22,-153 -79,-190 -50,-34 -95,-29 -147,17 -57,50 -64,73 -64,206 v 119 l 66,33 c 118,58 154,137 154,336 0,67 -3,129 -6,138 -4,11 -19,16 -48,16 -23,0 -47,5 -53,11 -6,6 -23,9 -39,7 -28,-3 -29,-5 -32,-60 -3,-54 -1,-58 22,-64 13,-3 33,-1 44,5 17,9 20,7 26,-21 28,-139 -42,-282 -148,-302 -71,-14 -156,48 -185,133 -11,33 -16,201 -6,201 3,0 14,-6 25,-12 33,-21 54,1 58,57 3,49 -6,65 -38,65 -8,0 -22,-5 -30,-10 z m 50,-56 v -35 l -50,7 -51,7 7,-109 c 8,-142 32,-201 100,-244 102,-64 218,-22 273,100 16,36 21,66 21,149 v 104 l -50,-7 -50,-7 v 35 c 0,38 15,55 33,37 6,-6 30,-11 54,-11 54,0 57,-9 51,-162 -3,-91 -9,-124 -27,-166 -29,-63 -89,-119 -148,-135 l -43,-11 V 742 c 0,-150 4,-167 49,-215 82,-89 208,-72 260,36 16,34 21,62 21,130 0,80 2,87 20,87 19,0 20,-7 20,-92 0,-109 -18,-155 -85,-217 -51,-47 -99,-59 -164,-42 -60,16 -96,44 -128,99 -26,44 -28,55 -33,201 l -5,154 -47,14 c -33,9 -58,26 -86,59 -60,67 -72,114 -72,271 v 133 h 43 c 23,0 49,4 57,9 21,14 30,4 30,-35 z m 504,-389 c 23,-24 28,-52 14,-82 -26,-55 -98,-32 -98,30 0,55 50,86 84,52 z"
         id="path1779"
         style="fill:#1d9fe3;fill-opacity:1" /></g></g></svg>
