<?xml version="1.0" encoding="UTF-8" standalone="no"?>
<!-- Created with Inkscape (http://www.inkscape.org/) -->

<svg
   width="13.22911mm"
   height="13.229171mm"
   viewBox="0 0 13.22911 13.229171"
   version="1.1"
   id="svg5"
   xml:space="preserve"
   inkscape:version="1.2.1 (9c6d41e410, 2022-07-14)"
   sodipodi:docname="icono reloj.svg"
   xmlns:inkscape="http://www.inkscape.org/namespaces/inkscape"
   xmlns:sodipodi="http://sodipodi.sourceforge.net/DTD/sodipodi-0.dtd"
   xmlns="http://www.w3.org/2000/svg"
   xmlns:svg="http://www.w3.org/2000/svg"><sodipodi:namedview
     id="namedview7"
     pagecolor="#ffffff"
     bordercolor="#000000"
     borderopacity="0.25"
     inkscape:showpageshadow="2"
     inkscape:pageopacity="0.0"
     inkscape:pagecheckerboard="0"
     inkscape:deskcolor="#d1d1d1"
     inkscape:document-units="mm"
     showgrid="false"
     inkscape:zoom="0.75455247"
     inkscape:cx="-90.119644"
     inkscape:cy="400.23724"
     inkscape:window-width="1350"
     inkscape:window-height="1041"
     inkscape:window-x="2061"
     inkscape:window-y="0"
     inkscape:window-maximized="0"
     inkscape:current-layer="layer1" /><defs
     id="defs2" /><g
     inkscape:label="Capa 1"
     inkscape:groupmode="layer"
     id="layer1"
     transform="translate(-123.98159,-42.428565)"><path
       style="fill:#1d9fe3;fill-opacity:1;stroke-width:1"
       d="m 134.15215,55.629656 -0.47153,0.02808 -0.17682,-0.02662 -0.17682,-0.02662 -0.32417,-0.0904 -0.32418,-0.0904 -0.36422,-0.202453 -0.36423,-0.202453 -0.34763,-0.348112 -0.34763,-0.348112 -0.21544,-0.41054 -0.21543,-0.410541 -0.0957,-0.406467 -0.0957,-0.406467 0.0304,-0.531198 0.0304,-0.531197 0.15072,-0.400173 0.15072,-0.400172 0.21464,-0.323811 0.21463,-0.323811 0.32381,-0.289001 0.3238,-0.289002 0.36549,-0.18018 0.3655,-0.180179 0.37999,-0.08969 0.38,-0.08969 h 0.38311 0.38312 l 0.37704,0.089 0.37703,0.089 0.41866,0.219766 0.41866,0.219767 0.35978,0.368389 0.35978,0.368389 0.18019,0.340102 0.1802,0.340102 0.10519,0.354131 0.10519,0.354132 -0.003,0.560708 -0.003,0.560708 -0.0736,0.264038 -0.0736,0.264037 -0.18574,0.382563 -0.18574,0.382563 -0.31214,0.338075 -0.31214,0.338075 -0.3302,0.219469 -0.33018,0.219471 -0.38913,0.134325 -0.38913,0.134327 -0.47152,0.02808 z m -0.24864,-0.78894 0.45865,0.0021 0.36163,-0.121993 0.36163,-0.121993 0.24402,-0.168123 0.24402,-0.168123 0.20394,-0.226326 0.20393,-0.226326 0.12435,-0.206576 0.12434,-0.206577 0.10243,-0.315975 0.10244,-0.315976 -0.0238,-0.545847 -0.0238,-0.545847 -0.19377,-0.394142 -0.19377,-0.394142 -0.2884,-0.288801 -0.28841,-0.288802 -0.37012,-0.182196 -0.37013,-0.182197 -0.37917,-0.06666 -0.37917,-0.06666 -0.38306,0.07068 -0.38306,0.07068 -0.32817,0.15832 -0.32817,0.158321 -0.32812,0.325164 -0.32813,0.325164 -0.15181,0.32462 -0.15181,0.324621 -0.0711,0.347243 -0.0711,0.347243 0.0412,0.330472 0.0412,0.33047 0.11328,0.303184 0.11328,0.303182 0.23067,0.322573 0.23067,0.322573 0.31318,0.215739 0.31318,0.215739 0.32417,0.116519 0.32417,0.11652 0.45865,0.0021 z m 0.52661,-1.666363 -0.92632,0.01363 -0.12876,-0.05457 -0.12876,-0.05457 -0.0628,-0.117493 -0.0628,-0.117493 v -0.937942 -0.937942 l 0.13641,-0.128333 0.13642,-0.128332 h 0.1157 0.1157 l 0.131,0.09188 0.13099,0.09188 v 0.734427 0.734427 h 0.70076 0.70076 l 0.13423,0.108846 0.13424,0.108847 v 0.189074 0.189073 l -0.10023,0.100478 -0.10023,0.100477 z m -7.12982,0.01329 -2.46078,-0.0026 -0.23576,-0.08352 -0.23577,-0.08353 -0.1306,-0.150913 -0.1306,-0.150913 -0.0626,-0.232939 -0.0626,-0.23294 0.0164,-3.764854 0.0164,-3.764853 0.10437,-0.191265 0.10438,-0.191266 0.15646,-0.102661 0.15646,-0.10266 0.34331,-0.03287 0.34331,-0.03287 2.1e-4,0.326794 2.2e-4,0.326794 0.11923,0.195836 0.11924,0.195837 0.26352,0.116729 0.26353,0.116729 0.21332,-0.04008 0.21332,-0.04008 0.19797,-0.174058 0.19797,-0.174058 0.0601,-0.216476 0.0601,-0.216477 2.2e-4,-0.190547 5.3e-4,-0.190547 2.44606,-0.01603 2.44605,-0.01603 -2e-5,0.252738 -2e-5,0.252739 0.0804,0.192682 0.0804,0.192681 0.18063,0.152195 0.18062,0.152194 0.21585,0.04055 0.21586,0.04055 0.27058,-0.136479 0.27059,-0.136479 0.10718,-0.205656 0.10718,-0.205656 v -0.298203 -0.298205 l 0.3433,0.03287 0.34331,0.03287 0.15646,0.10266 0.15646,0.102661 0.10437,0.191265 0.10438,0.191266 0.0187,1.726391 0.0187,1.72639 h -0.41659 -0.41657 v -0.826304 -0.826307 h -4.56789 -4.56792 v 2.921585 2.921584 h 2.47552 2.47551 v 0.413154 0.413153 l -2.46078,-0.0026 z m -0.82517,-1.709045 h -0.81044 V 50.6818 49.885005 h 0.81044 0.81043 v 0.796795 0.796796 z m 2.49025,0 h -0.7957 V 50.6818 49.885005 h 0.7957 0.7957 v 0.796795 0.796796 z m -2.47552,-2.47892 h -0.7957 v -0.796796 -0.796795 h 0.7957 0.7957 v 0.796795 0.796796 z m 2.47552,0 h -0.7957 v -0.796796 -0.796795 h 0.7957 0.7957 v 0.796795 0.796796 z m 2.4755,0 h -0.7957 v -0.796796 -0.796795 h 0.7957 0.7957 v 0.796795 0.796796 z m -5.37728,-4.131532 h -0.10744 l -0.131,-0.09188 -0.131,-0.09188 v -1.05182 -1.051821 l 0.0915,-0.07609 0.0916,-0.07609 h 0.18286 0.18287 l 0.1087,0.13442 0.10869,0.134419 v 0.940495 0.940495 l -0.14467,0.144872 -0.14467,0.144872 z m 6.63933,0 h -0.0968 l -0.1553,-0.122328 -0.1553,-0.122328 v -0.989941 -0.989941 l 0.11864,-0.107517 0.11864,-0.107518 h 0.18441 0.1844 l 0.0801,0.109651 0.0801,0.109651 v 1.018256 1.018255 l -0.13099,0.09188 -0.131,0.09188 z"
       id="path103614" /></g></svg>
