<?xml version="1.0" encoding="UTF-8" standalone="no"?>
<!-- Created with Inkscape (http://www.inkscape.org/) -->

<svg
   width="13.229167mm"
   height="13.229167mm"
   viewBox="0 0 13.229167 13.229167"
   version="1.1"
   id="svg5"
   xml:space="preserve"
   inkscape:version="1.2.1 (9c6d41e410, 2022-07-14)"
   sodipodi:docname="til.svg"
   xmlns:inkscape="http://www.inkscape.org/namespaces/inkscape"
   xmlns:sodipodi="http://sodipodi.sourceforge.net/DTD/sodipodi-0.dtd"
   xmlns="http://www.w3.org/2000/svg"
   xmlns:svg="http://www.w3.org/2000/svg"><sodipodi:namedview
     id="namedview7"
     pagecolor="#ffffff"
     bordercolor="#000000"
     borderopacity="0.25"
     inkscape:showpageshadow="2"
     inkscape:pageopacity="0.0"
     inkscape:pagecheckerboard="0"
     inkscape:deskcolor="#d1d1d1"
     inkscape:document-units="mm"
     showgrid="false"
     inkscape:zoom="4.2683933"
     inkscape:cx="99.569081"
     inkscape:cy="91.134994"
     inkscape:window-width="1920"
     inkscape:window-height="1027"
     inkscape:window-x="1912"
     inkscape:window-y="-8"
     inkscape:window-maximized="1"
     inkscape:current-layer="layer1" /><defs
     id="defs2" /><g
     inkscape:label="Capa 1"
     inkscape:groupmode="layer"
     id="layer1"
     transform="translate(-95.424377,-52.29451)"><path
       style="fill:#1d9fe3;fill-opacity:1;stroke-width:1"
       d="m 99.140702,64.996291 c -4.334443,-2.06846 -5.032926,-8.285865 -1.270747,-11.311454 1.618615,-1.30172 3.618375,-1.71222 5.527395,-1.134633 0.81473,0.246503 1.72724,0.637868 2.0278,0.869704 0.51233,0.395177 0.51776,0.451845 0.087,0.90683 -0.42902,0.453067 -0.52255,0.454222 -1.40747,0.01737 -1.17123,-0.578179 -3.50284,-0.607067 -4.52703,-0.05609 -2.757053,1.483183 -3.617516,5.344106 -1.736974,7.793842 1.44796,1.886214 3.812894,2.546004 5.889894,1.643209 1.86255,-0.809587 3.46233,-3.677887 3.03626,-5.44386 -0.17966,-0.744677 0.54498,-1.984979 0.99186,-1.697665 0.39911,0.2566 0.57792,2.895275 0.27541,4.063991 -0.42113,1.626979 -1.83951,3.442594 -3.29194,4.213864 -1.55903,0.827882 -4.02477,0.88726 -5.601356,0.134887 z m 0.384994,-4.427011 -1.527675,-1.537824 0.6984,-0.726549 0.69841,-0.726548 0.902669,0.910178 0.90269,0.910177 2.99972,-3.110929 2.99973,-3.110928 0.72695,0.75624 0.72695,0.756241 -3.62886,3.643953 c -1.99587,2.004175 -3.70591,3.673173 -3.80009,3.708884 -0.0942,0.03571 -0.85869,-0.62709 -1.698894,-1.472895 z"
       id="path307" /></g></svg>
